<?xml version="1.0" encoding="utf-8"?>
<!-- Generator: Adobe Illustrator 24.1.2, SVG Export Plug-In . SVG Version: 6.00 Build 0)  -->
<svg version="1.1" id="Layer_1" xmlns="http://www.w3.org/2000/svg" xmlns:xlink="http://www.w3.org/1999/xlink" x="0px" y="0px"
	 viewBox="0 0 170.08 141.73" style="enable-background:new 0 0 170.08 141.73;" xml:space="preserve">
<style type="text/css">
	.st0{fill:url(#SVGID_1_);}
	.st1{opacity:0.7;fill:url(#SVGID_2_);}
	.st2{opacity:0.51;fill:url(#SVGID_3_);}
</style>
<g>
	<linearGradient id="SVGID_1_" gradientUnits="userSpaceOnUse" x1="87.6201" y1="100.8813" x2="85.3933" y2="-15.9203">
		<stop  offset="0" style="stop-color:#FF77CD"/>
		<stop  offset="1" style="stop-color:#0553F9"/>
	</linearGradient>
	<path class="st0" d="M134.16,76.65c-0.78,0-1.55-0.3-2.14-0.9L89.07,31.96c-1.18-1.2-3.12-1.2-4.3,0L42.18,75.46
		c-1.16,1.19-3.06,1.2-4.24,0.04c-1.18-1.16-1.2-3.06-0.04-4.24L82.51,25.7c1.17-1.2,2.74-1.85,4.41-1.85c0,0,0,0,0,0
		c1.67,0,3.24,0.66,4.41,1.85l44.97,45.85c1.16,1.18,1.14,3.08-0.04,4.24C135.67,76.36,134.91,76.65,134.16,76.65z"/>
	<linearGradient id="SVGID_2_" gradientUnits="userSpaceOnUse" x1="87.4917" y1="94.2682" x2="85.8126" y2="6.192">
		<stop  offset="0" style="stop-color:#FF77CD"/>
		<stop  offset="1" style="stop-color:#0553F9"/>
	</linearGradient>
	<path class="st1" d="M122.58,75.99c-0.59,0-1.17-0.23-1.61-0.68L88.59,42.3c-0.89-0.91-2.35-0.91-3.24,0L53.23,75.1
		c-0.87,0.89-2.31,0.91-3.2,0.03c-0.89-0.87-0.91-2.31-0.03-3.2l33.64-34.36c0.88-0.9,2.07-1.4,3.33-1.4c0,0,0,0,0,0
		c1.26,0,2.44,0.5,3.33,1.4l33.91,34.57c0.87,0.89,0.86,2.32-0.03,3.2C123.73,75.78,123.16,75.99,122.58,75.99z"/>
	<linearGradient id="SVGID_3_" gradientUnits="userSpaceOnUse" x1="87.3733" y1="88.3272" x2="86.1994" y2="26.7524">
		<stop  offset="0" style="stop-color:#FF77CD"/>
		<stop  offset="1" style="stop-color:#0553F9"/>
	</linearGradient>
	<path class="st2" d="M111.91,75.55c-0.41,0-0.82-0.16-1.13-0.47L88.14,52c-0.62-0.63-1.65-0.63-2.27,0L63.42,74.93
		c-0.61,0.62-1.61,0.63-2.24,0.02c-0.62-0.61-0.63-1.61-0.02-2.24l23.52-24.02c0.62-0.63,1.44-0.98,2.33-0.98c0,0,0,0,0,0
		c0.88,0,1.71,0.35,2.32,0.98l23.71,24.17c0.61,0.62,0.6,1.62-0.02,2.24C112.71,75.4,112.31,75.55,111.91,75.55z"/>
</g>
</svg>
